<svg width="140" height="141" viewBox="0 0 140 141" fill="none" xmlns="http://www.w3.org/2000/svg">
<path d="M70 0.375C56.1553 0.375 42.6215 4.48043 31.1101 12.1721C19.5987 19.8638 10.6266 30.7963 5.32846 43.5872C0.0303306 56.378 -1.3559 70.4526 1.34506 84.0313C4.04603 97.61 10.7129 110.083 20.5026 119.872C30.2922 129.662 42.765 136.329 56.3437 139.03C69.9224 141.731 83.997 140.345 96.7878 135.047C109.579 129.748 120.511 120.776 128.203 109.265C135.895 97.7534 140 84.2197 140 70.375C139.977 51.8168 132.595 34.0251 119.473 20.9025C106.35 7.77984 88.5582 0.397606 70 0.375ZM44.52 22.2383L58.0067 28.235L68.6 16.1717C68.7785 15.9785 68.995 15.8244 69.236 15.719C69.4769 15.6136 69.737 15.5592 70 15.5592C70.263 15.5592 70.5231 15.6136 70.7641 15.719C71.005 15.8244 71.2215 15.9785 71.4 16.1717L81.9933 28.235L95.48 22.2383C95.8511 22.0807 96.2629 22.0459 96.6552 22.139C97.0475 22.2321 97.3998 22.4483 97.6604 22.7559C97.9211 23.0635 98.0766 23.4464 98.1041 23.8487C98.1316 24.2509 98.0297 24.6514 97.8133 24.9917L84.6767 44.685C84.5104 44.9423 84.2823 45.1539 84.0134 45.3006C83.7444 45.4473 83.4431 45.5244 83.1367 45.525H56.8634C56.557 45.5244 56.2556 45.4473 55.9867 45.3006C55.7177 45.1539 55.4897 44.9423 55.3233 44.685L42.1867 24.9917C41.9743 24.651 41.8755 24.2517 41.9047 23.8513C41.9339 23.4509 42.0895 23.0701 42.349 22.7639C42.6086 22.4576 42.9587 22.2417 43.3489 22.1472C43.739 22.0528 44.1491 22.0847 44.52 22.2383ZM89.46 68.6717C89.7632 83.045 73.36 92.7516 61.0634 85.9383C58.0009 84.3497 55.4162 81.975 53.5746 79.0577C51.733 76.1404 50.7008 72.7856 50.5839 69.3376C50.4669 65.8897 51.2695 62.4727 52.9092 59.4373C54.5489 56.4019 56.9667 53.8575 59.9145 52.065C62.8623 50.2726 66.2339 49.2968 69.6833 49.2377C73.1328 49.1786 76.5358 50.0384 79.5433 51.7288C82.5507 53.4192 85.0542 55.8793 86.797 58.8568C88.5397 61.8342 89.4588 65.2217 89.46 68.6717ZM105.607 114.475C105.605 116.09 104.964 117.638 103.822 118.78C102.68 119.922 101.131 120.564 99.5167 120.565H40.4834C38.8685 120.564 37.3202 119.922 36.1784 118.78C35.0365 117.638 34.3945 116.09 34.3934 114.475V106.822C34.3912 103.332 35.4876 99.9307 37.5273 97.0995C39.5669 94.2683 42.4462 92.1512 45.7567 91.0483L56.4434 87.4783C60.3868 90.3445 65.1366 91.8883 70.0117 91.8883C74.8867 91.8883 79.6366 90.3445 83.58 87.4783L94.2433 91.0483C97.5539 92.1512 100.433 94.2683 102.473 97.0995C104.512 99.9307 105.609 103.332 105.607 106.822V114.475Z" fill="#D0D1D2"/>
</svg>
