<svg width="183" height="34" viewBox="0 0 183 34" fill="none" xmlns="http://www.w3.org/2000/svg">
<path d="M12.9124 32.9846L9.4028 26.2821H9.37642V32.9846H3.51835V14.3021H12.2263C13.7392 14.3021 15.0322 14.5748 16.1053 15.1201C17.1784 15.6479 17.9788 16.3779 18.5065 17.3103C19.0519 18.2251 19.3246 19.263 19.3246 20.424C19.3246 21.6731 18.9727 22.7813 18.2691 23.7489C17.583 24.7164 16.589 25.4113 15.2873 25.8335L19.351 32.9846H12.9124ZM9.37642 22.3767H11.6985C12.2615 22.3767 12.6837 22.2536 12.9651 22.0073C13.2466 21.7434 13.3873 21.3388 13.3873 20.7935C13.3873 20.3009 13.2378 19.9139 12.9387 19.6324C12.6573 19.351 12.2439 19.2102 11.6985 19.2102H9.37642V22.3767Z" fill="white"/>
<path d="M30.2998 33.1693C28.5406 33.1693 26.9221 32.7559 25.4444 31.9291C23.9843 31.1023 22.8233 29.9588 21.9613 28.4987C21.0993 27.0386 20.6683 25.3937 20.6683 23.5642C20.6683 21.7346 21.0993 20.0898 21.9613 18.6297C22.8233 17.1696 23.9843 16.0349 25.4444 15.2257C26.9221 14.3989 28.5406 13.9855 30.2998 13.9855C32.0589 13.9855 33.6686 14.3989 35.1287 15.2257C36.5888 16.0349 37.7411 17.1696 38.5855 18.6297C39.4475 20.0898 39.8785 21.7346 39.8785 23.5642C39.8785 25.3937 39.4475 27.0386 38.5855 28.4987C37.7411 29.9588 36.58 31.1023 35.1023 31.9291C33.6422 32.7559 32.0414 33.1693 30.2998 33.1693ZM30.2998 27.707C31.4608 27.707 32.358 27.3376 32.9913 26.5988C33.6246 25.8423 33.9413 24.8308 33.9413 23.5642C33.9413 22.28 33.6246 21.2685 32.9913 20.5296C32.358 19.7732 31.4608 19.3949 30.2998 19.3949C29.1211 19.3949 28.2151 19.7732 27.5818 20.5296C26.9485 21.2685 26.6319 22.28 26.6319 23.5642C26.6319 24.8308 26.9485 25.8423 27.5818 26.5988C28.2151 27.3376 29.1211 27.707 30.2998 27.707Z" fill="white"/>
<path d="M59.9354 14.3021L53.2329 27.3112V32.9846H47.3749V27.3112L40.6724 14.3021H47.3749L50.3567 20.9254L53.3385 14.3021H59.9354Z" fill="white"/>
<path d="M73.2471 30.1611H67.0196L66.0961 32.9846H59.9478L66.7822 14.3021H73.5374L80.3454 32.9846H74.1707L73.2471 30.1611ZM71.8222 25.7544L70.1334 20.556L68.4446 25.7544H71.8222Z" fill="white"/>
<path d="M87.5344 28.5514H93.1814V32.9846H81.6763V14.3021H87.5344V28.5514Z" fill="white"/>
<path d="M113.386 32.9846L109.877 26.2821H109.851V32.9846H103.992V14.3021H112.7C114.213 14.3021 115.506 14.5748 116.579 15.1201C117.652 15.6479 118.453 16.3779 118.981 17.3103C119.526 18.2251 119.799 19.263 119.799 20.424C119.799 21.6731 119.447 22.7813 118.743 23.7489C118.057 24.7164 117.063 25.4113 115.761 25.8335L119.825 32.9846H113.386ZM109.851 22.3767H112.173C112.736 22.3767 113.158 22.2536 113.439 22.0073C113.721 21.7434 113.861 21.3388 113.861 20.7935C113.861 20.3009 113.712 19.9139 113.413 19.6324C113.131 19.351 112.718 19.2102 112.173 19.2102H109.851V22.3767Z" fill="white"/>
<path d="M128.584 18.9727V21.2685H134.389V25.6752H128.584V28.314H135.181V32.9846H122.726V14.3021H135.181V18.9727H128.584Z" fill="white"/>
<path d="M144.302 18.9727V21.2685H150.107V25.6752H144.302V28.314H150.899V32.9846H138.444V14.3021H150.899V18.9727H144.302Z" fill="white"/>
<path d="M160.02 28.5514H165.667V32.9846H154.162V14.3021H160.02V28.5514Z" fill="white"/>
<path d="M175.875 33.1693C173.641 33.1693 171.794 32.6503 170.334 31.6124C168.891 30.5569 168.109 29.0176 167.985 26.9946H174.213C174.301 28.0677 174.776 28.6042 175.638 28.6042C175.954 28.6042 176.218 28.5339 176.429 28.3931C176.658 28.2348 176.773 27.9973 176.773 27.6807C176.773 27.2409 176.535 26.889 176.06 26.6251C175.585 26.3437 174.846 26.027 173.843 25.6752C172.647 25.253 171.653 24.8396 170.862 24.435C170.088 24.0304 169.419 23.441 168.856 22.667C168.293 21.893 168.021 20.899 168.038 19.6852C168.038 18.4714 168.346 17.4422 168.962 16.5978C169.595 15.7358 170.448 15.0849 171.521 14.6452C172.612 14.2054 173.835 13.9855 175.189 13.9855C177.476 13.9855 179.288 14.5132 180.625 15.5687C181.98 16.6242 182.692 18.1107 182.763 20.0282H176.456C176.438 19.5005 176.306 19.1223 176.06 18.8936C175.814 18.6649 175.515 18.5505 175.163 18.5505C174.917 18.5505 174.714 18.6385 174.556 18.8144C174.398 18.9727 174.318 19.2014 174.318 19.5005C174.318 19.9227 174.547 20.2745 175.005 20.556C175.48 20.8199 176.227 21.1453 177.247 21.5323C178.426 21.9721 179.394 22.3943 180.15 22.7989C180.924 23.2036 181.593 23.7665 182.156 24.4877C182.719 25.209 183 26.115 183 27.2057C183 28.3491 182.719 29.3783 182.156 30.293C181.593 31.1902 180.775 31.8939 179.702 32.404C178.628 32.9142 177.353 33.1693 175.875 33.1693Z" fill="white"/>
<path d="M19.6636 7.30753C19.6036 7.2525 19.5286 7.22109 19.4504 7.21827C19.3723 7.21546 19.2955 7.24141 19.2324 7.292C18.5476 7.82331 17.8308 8.30298 17.0869 8.72769C16.999 8.77285 16.902 8.79214 16.8053 8.78367C16.7086 8.7752 16.6155 8.73925 16.5353 8.67936C16.4551 8.61948 16.3904 8.53771 16.3477 8.4421C16.305 8.34649 16.2857 8.24032 16.2916 8.13402C16.3559 7.35604 16.4837 6.58596 16.6733 5.83304C16.6917 5.74799 16.6835 5.65862 16.65 5.57933C16.6164 5.50005 16.5596 5.43547 16.4885 5.39603C16.4174 5.35658 16.3363 5.34455 16.2583 5.36189C16.1802 5.37923 16.1098 5.42493 16.0583 5.4916C15.5814 6.09986 14.942 6.52755 14.2309 6.71384C14.1479 6.72711 14.0721 6.77295 14.0175 6.84286C13.9629 6.91278 13.9333 7.00204 13.934 7.09412V8.09521C13.932 8.23449 13.882 8.36775 13.794 8.46821C13.7061 8.56867 13.5869 8.62888 13.4602 8.63675C13.3335 8.64461 13.2088 8.59954 13.1111 8.5106C13.0135 8.42166 12.9501 8.29544 12.9337 8.1573C12.924 7.00486 13.0681 5.85706 13.3614 4.75047C13.3746 4.69043 13.3746 4.62783 13.3614 4.56779C13.3483 4.50775 13.3224 4.45199 13.2858 4.40505C13.2493 4.35812 13.2031 4.32135 13.1511 4.29776C13.0992 4.27417 13.0428 4.26443 12.9868 4.26933C12.4149 4.28711 11.858 4.06671 11.428 3.65238C10.7352 3.00048 10.3394 1.89074 10.2475 0.358047C10.2403 0.260523 10.2 0.169532 10.1345 0.103183C10.069 0.036835 9.98311 -3.42463e-06 9.89398 2.38744e-10C9.80486 3.42511e-06 9.71901 0.0368485 9.65351 0.103202C9.58801 0.169555 9.54768 0.26055 9.54054 0.358074C9.46559 2.62753 8.37466 4.34629 6.80118 4.26929C6.74504 4.26407 6.68857 4.27359 6.63644 4.29708C6.58431 4.32057 6.53803 4.35735 6.50142 4.40438C6.46482 4.4514 6.43893 4.50732 6.42592 4.5675C6.4129 4.62768 6.41313 4.69041 6.42657 4.75048C6.71992 5.85706 6.86402 7.00486 6.85427 8.1573C6.838 8.29552 6.77465 8.42184 6.67698 8.51086C6.5793 8.59987 6.45454 8.64499 6.3278 8.63711C6.20105 8.62924 6.08172 8.56897 5.99382 8.46843C5.90591 8.36789 5.85595 8.23453 5.85398 8.09518V7.09412C5.85473 7.00204 5.82506 6.91278 5.77047 6.84286C5.71588 6.77295 5.64007 6.72711 5.55706 6.71384C4.846 6.52755 4.20655 6.09985 3.72969 5.49158C3.67836 5.42444 3.60787 5.37833 3.52965 5.36073C3.45144 5.34313 3.3701 5.35508 3.29885 5.39464C3.22761 5.4342 3.17064 5.49905 3.13721 5.57864C3.10377 5.65823 3.09584 5.7479 3.11469 5.83307C3.30434 6.58598 3.43209 7.35605 3.49641 8.13402C3.50384 8.24176 3.4848 8.34972 3.44128 8.44663C3.39776 8.54355 3.33135 8.62587 3.24898 8.68501C3.16967 8.74574 3.07687 8.78177 2.98042 8.78929C2.88396 8.7968 2.78745 8.77552 2.70113 8.7277C1.95719 8.30298 1.24038 7.82332 0.555628 7.29201C0.491918 7.2433 0.415378 7.21897 0.33782 7.22277C0.260263 7.22657 0.186 7.25829 0.126493 7.31302C0.0669866 7.36776 0.0255442 7.44247 0.00856261 7.52564C-0.00841902 7.6088 4.10819e-06 7.69579 0.0325318 7.77317C0.410714 8.65007 0.923233 11.1916 1.29082 13.1938C1.50798 13.0822 1.73107 12.985 1.95886 12.9028C5.78168 11.4336 14.7688 11.3668 18.4972 13.1937C18.8648 11.1916 19.3773 8.65007 19.7555 7.77316C19.7898 7.69544 19.7994 7.60734 19.7828 7.52293C19.7661 7.43852 19.7242 7.36268 19.6636 7.30753ZM9.894 10.3845C8.30265 10.3407 8.30002 6.63065 9.89403 6.58581C11.4885 6.63113 11.4848 10.3411 9.894 10.3845Z" fill="#E9AF1A"/>
<path d="M9.89401 7.36185C9.23928 7.47029 9.24329 9.50326 9.89403 9.6085C10.5458 9.5021 10.5477 7.46913 9.89401 7.36185Z" fill="#E9AF1A"/>
</svg>
