<svg width="49" height="82" viewBox="0 0 49 82" fill="none" xmlns="http://www.w3.org/2000/svg">
<path d="M31.9698 81.6667L23.2804 65.072H23.2151V81.6667H8.71111V35.4107H30.2711C34.0169 35.4107 37.2182 36.0858 39.8751 37.436C42.532 38.7427 44.5138 40.5502 45.8204 42.8587C47.1707 45.1236 47.8458 47.6933 47.8458 50.568C47.8458 53.6604 46.9747 56.4044 45.2324 58.8C43.5338 61.1956 41.0729 62.916 37.8498 63.9613L47.9111 81.6667H31.9698ZM23.2151 55.4027H28.9644C30.3582 55.4027 31.4036 55.0978 32.1004 54.488C32.7973 53.8347 33.1458 52.8329 33.1458 51.4827C33.1458 50.2631 32.7756 49.3049 32.0351 48.608C31.3382 47.9111 30.3147 47.5627 28.9644 47.5627H23.2151V55.4027Z" fill="white"/>
<path d="M48.6852 18.0927C48.5367 17.9565 48.3509 17.8787 48.1574 17.8718C47.9639 17.8648 47.7739 17.929 47.6175 18.0543C45.9222 19.3698 44.1474 20.5574 42.3055 21.6089C42.088 21.7207 41.8477 21.7685 41.6082 21.7475C41.3688 21.7265 41.1385 21.6375 40.9399 21.4893C40.7412 21.341 40.5812 21.1386 40.4754 20.9018C40.3696 20.6651 40.3217 20.4022 40.3365 20.1391C40.4957 18.2129 40.812 16.3062 41.2816 14.4421C41.3271 14.2315 41.3068 14.0102 41.2237 13.8139C41.1407 13.6176 40.9999 13.4577 40.8239 13.36C40.648 13.2624 40.4472 13.2326 40.254 13.2755C40.0607 13.3185 39.8863 13.4316 39.7588 13.5967C38.5781 15.1027 36.995 16.1616 35.2344 16.6228C35.0289 16.6557 34.8412 16.7692 34.7061 16.9423C34.5709 17.1154 34.4975 17.3364 34.4993 17.5644V20.043C34.4942 20.3878 34.3704 20.7178 34.1527 20.9665C33.9351 21.2152 33.6398 21.3643 33.3261 21.3838C33.0124 21.4032 32.7037 21.2917 32.4619 21.0714C32.2201 20.8512 32.0632 20.5387 32.0227 20.1967C31.9985 17.3434 32.3553 14.5015 33.0816 11.7617C33.1141 11.6131 33.1141 11.4581 33.0816 11.3094C33.049 11.1608 32.9849 11.0227 32.8944 10.9065C32.8039 10.7903 32.6896 10.6992 32.5609 10.6408C32.4323 10.5824 32.2928 10.5583 32.154 10.5705C30.738 10.6145 29.3593 10.0688 28.2947 9.04295C26.5794 7.42891 25.5993 4.6813 25.3717 0.88649C25.354 0.645031 25.2541 0.419744 25.092 0.255472C24.9298 0.0912 24.7172 -8.47906e-06 24.4966 5.91212e-10C24.2759 8.48024e-06 24.0633 0.0912334 23.9012 0.255518C23.739 0.419802 23.6391 0.645098 23.6215 0.886558C23.4359 6.50552 20.7349 10.761 16.8391 10.5704C16.7001 10.5574 16.5603 10.581 16.4312 10.6392C16.3021 10.6973 16.1875 10.7884 16.0969 10.9048C16.0063 11.0212 15.9422 11.1597 15.91 11.3087C15.8777 11.4577 15.8783 11.613 15.9116 11.7617C16.6379 14.5015 16.9946 17.3434 16.9705 20.1967C16.9302 20.5389 16.7734 20.8517 16.5316 21.0721C16.2897 21.2925 15.9808 21.4042 15.667 21.3847C15.3532 21.3652 15.0578 21.216 14.8401 20.967C14.6225 20.7181 14.4988 20.3879 14.4939 20.0429V17.5644C14.4957 17.3364 14.4223 17.1154 14.2871 16.9423C14.152 16.7692 13.9643 16.6557 13.7588 16.6228C11.9982 16.1616 10.415 15.1026 9.23435 13.5966C9.10727 13.4304 8.93273 13.3162 8.73908 13.2727C8.54543 13.2291 8.34404 13.2587 8.16765 13.3566C7.99125 13.4546 7.85021 13.6151 7.76743 13.8122C7.68465 14.0092 7.665 14.2312 7.71167 14.4421C8.18122 16.3063 8.49752 18.2129 8.65677 20.1391C8.67517 20.4058 8.62804 20.6731 8.52029 20.9131C8.41254 21.153 8.24811 21.3568 8.04417 21.5033C7.84781 21.6536 7.61804 21.7428 7.37923 21.7614C7.14042 21.78 6.90147 21.7274 6.68773 21.6089C4.84581 20.5574 3.07105 19.3698 1.37568 18.0543C1.21794 17.9337 1.02844 17.8735 0.836411 17.8829C0.644386 17.8923 0.460518 17.9708 0.313185 18.1063C0.165852 18.2419 0.0632451 18.4269 0.0212002 18.6328C-0.0208447 18.8387 1.01735e-05 19.054 0.0805457 19.2456C1.01689 21.4168 2.28584 27.7094 3.19595 32.6667C3.73362 32.3903 4.28596 32.1497 4.84996 31.9461C14.3149 28.3085 36.5661 28.1431 45.7973 32.6664C46.7075 27.7094 47.9764 21.4168 48.9128 19.2456C48.9977 19.0532 49.0215 18.835 48.9802 18.6261C48.939 18.4171 48.8351 18.2293 48.6852 18.0927ZM24.4966 25.7111C20.5566 25.6025 20.55 16.4169 24.4967 16.3058C28.4445 16.418 28.4353 25.6037 24.4966 25.7111Z" fill="#E9AF1A"/>
<path d="M24.4966 18.2272C22.8756 18.4957 22.8855 23.5292 24.4967 23.7897C26.1103 23.5263 26.115 18.4929 24.4966 18.2272Z" fill="#E9AF1A"/>
</svg>
