<svg width="42" height="42" viewBox="0 0 42 42" fill="none" xmlns="http://www.w3.org/2000/svg">
<path d="M38.2727 41.7821L23.9545 27.464C22.8182 28.373 21.5114 29.0927 20.0341 29.623C18.5568 30.1534 16.9848 30.4185 15.3182 30.4185C11.1894 30.4185 7.69508 28.9886 4.83523 26.1287C1.97538 23.2689 0.545456 19.7746 0.545456 15.6458C0.545456 11.517 1.97538 8.02267 4.83523 5.16282C7.69508 2.30297 11.1894 0.873047 15.3182 0.873047C19.447 0.873047 22.9413 2.30297 25.8011 5.16282C28.661 8.02267 30.0909 11.517 30.0909 15.6458C30.0909 17.3124 29.8258 18.8844 29.2955 20.3617C28.7652 21.839 28.0455 23.1458 27.1364 24.2821L41.4545 38.6003L38.2727 41.7821ZM15.3182 25.873C18.1591 25.873 20.5739 24.8787 22.5625 22.8901C24.5511 20.9015 25.5455 18.4867 25.5455 15.6458C25.5455 12.8049 24.5511 10.3901 22.5625 8.40146C20.5739 6.41282 18.1591 5.4185 15.3182 5.4185C12.4773 5.4185 10.0625 6.41282 8.07386 8.40146C6.08523 10.3901 5.09091 12.8049 5.09091 15.6458C5.09091 18.4867 6.08523 20.9015 8.07386 22.8901C10.0625 24.8787 12.4773 25.873 15.3182 25.873Z" fill="#D0D1D2"/>
</svg>
