<svg width="21" height="22" viewBox="0 0 21 22" fill="none" xmlns="http://www.w3.org/2000/svg">
<path d="M3.85 10.1443L3.55 8.64429C3.35 8.56095 3.1625 8.47345 2.9875 8.38179C2.8125 8.29012 2.63333 8.17762 2.45 8.04429L1 8.49429L0 6.79429L1.15 5.79429C1.11667 5.57762 1.1 5.36095 1.1 5.14429C1.1 4.92762 1.11667 4.71095 1.15 4.49429L0 3.49429L1 1.79429L2.45 2.24429C2.63333 2.11095 2.8125 1.99845 2.9875 1.90679C3.1625 1.81512 3.35 1.72762 3.55 1.64429L3.85 0.144287H5.85L6.15 1.64429C6.35 1.72762 6.5375 1.81512 6.7125 1.90679C6.8875 1.99845 7.06667 2.11095 7.25 2.24429L8.7 1.79429L9.7 3.49429L8.55 4.49429C8.58333 4.71095 8.6 4.92762 8.6 5.14429C8.6 5.36095 8.58333 5.57762 8.55 5.79429L9.7 6.79429L8.7 8.49429L7.25 8.04429C7.06667 8.17762 6.8875 8.29012 6.7125 8.38179C6.5375 8.47345 6.35 8.56095 6.15 8.64429L5.85 10.1443H3.85ZM4.85 7.14429C5.4 7.14429 5.87083 6.94845 6.2625 6.55679C6.65417 6.16512 6.85 5.69429 6.85 5.14429C6.85 4.59429 6.65417 4.12345 6.2625 3.73179C5.87083 3.34012 5.4 3.14429 4.85 3.14429C4.3 3.14429 3.82917 3.34012 3.4375 3.73179C3.04583 4.12345 2.85 4.59429 2.85 5.14429C2.85 5.69429 3.04583 6.16512 3.4375 6.55679C3.82917 6.94845 4.3 7.14429 4.85 7.14429ZM12.8 21.1443L12.35 19.0443C12.0667 18.9443 11.8042 18.8235 11.5625 18.6818C11.3208 18.5401 11.0833 18.3776 10.85 18.1943L8.85 18.8443L7.45 16.4443L9.05 15.0443C9.01667 14.7443 9 14.4443 9 14.1443C9 13.8443 9.01667 13.5443 9.05 13.2443L7.45 11.8443L8.85 9.44429L10.85 10.0943C11.0833 9.91095 11.3208 9.74845 11.5625 9.60679C11.8042 9.46512 12.0667 9.34429 12.35 9.24429L12.8 7.14429H15.6L16.05 9.24429C16.3333 9.34429 16.5958 9.46512 16.8375 9.60679C17.0792 9.74845 17.3167 9.91095 17.55 10.0943L19.55 9.44429L20.95 11.8443L19.35 13.2443C19.3833 13.5443 19.4 13.8443 19.4 14.1443C19.4 14.4443 19.3833 14.7443 19.35 15.0443L20.95 16.4443L19.55 18.8443L17.55 18.1943C17.3167 18.3776 17.0792 18.5401 16.8375 18.6818C16.5958 18.8235 16.3333 18.9443 16.05 19.0443L15.6 21.1443H12.8ZM14.2 17.1443C15.0333 17.1443 15.7417 16.8526 16.325 16.2693C16.9083 15.686 17.2 14.9776 17.2 14.1443C17.2 13.311 16.9083 12.6026 16.325 12.0193C15.7417 11.436 15.0333 11.1443 14.2 11.1443C13.3667 11.1443 12.6583 11.436 12.075 12.0193C11.4917 12.6026 11.2 13.311 11.2 14.1443C11.2 14.9776 11.4917 15.686 12.075 16.2693C12.6583 16.8526 13.3667 17.1443 14.2 17.1443Z" fill="#D0D1D2"/>
</svg>
